<svg width="254" height="78" fill="none" xmlns="http://www.w3.org/2000/svg"><g clip-path="url(#clip0)"><path d="M45.956 5.643c-1.328 1.493-2.987 2.655-4.48 3.817l-1.99 1.493c-1.162.664-2.157 1.328-3.153 1.992-.83.498-1.659.83-2.488 1.327-1.162.664-2.323 1.162-3.484 1.66-.996.498-1.825.83-2.82 1.162a55.057 55.057 0 01-4.812 1.66c-.995.331-2.157.663-3.318.829-1.991.498-3.982.996-5.973 1.162-.332 0-.497.166-.497.498 0 2.157-.166 4.48 0 6.638.165 2.987.497 5.974 1.16 8.796.333 1.493.83 2.987 1.328 4.48a46.039 46.039 0 001.66 4.315c.663 1.494 1.492 2.822 2.322 4.15.83 1.327 1.659 2.489 2.654 3.65 1.328 1.66 2.82 3.154 4.314 4.647 1.161 1.162 2.488 2.158 3.982 3.153.331.166.497.498.83.664.33.166.165.332 0 .498-1.162.664-2.158 1.328-3.319 1.826-1.825.995-3.816 1.825-5.64 2.489-.996.332-1.992.664-2.987 1.162-.83.332-1.327-.166-1.825-.498-.995-.996-1.99-1.992-2.82-2.987-1.162-1.162-2.157-2.49-3.153-3.818l-1.99-2.987c-.664-1.161-1.494-2.323-2.157-3.485-.83-1.493-1.66-2.987-2.157-4.48l-.995-2.49c-.498-1.328-.996-2.821-1.493-4.315-.332-1.162-.498-2.49-.83-3.651-.498-1.494-.498-2.987-.83-4.48-.331-.997-.165-2.158-.331-3.154C-.166 27.715 0 23.732 0 19.749v-9.626c0-.497.166-.663.664-.663 2.156-.332 4.147-.332 6.304-.498 1.493-.166 2.986-.332 4.48-.664 1.659-.332 3.317-.664 4.977-1.162 1.99-.498 3.981-1.162 5.806-1.825 1.327-.498 2.82-1.162 4.148-1.66 1.659-.83 3.318-1.494 4.811-2.323.498-.332 1.161-.498 1.66-.83.829-.664 1.492-.498 1.99-.166.498.332.995.498 1.659.83 1.99.995 3.982 1.991 5.807 2.987.663.332 1.493.498 2.322.83.332.166.83.498 1.328.664z" fill="#2F80ED"/><path d="M36.83 15.932l2.49-1.494c1.327-.83 2.654-1.825 3.981-2.821 1.327-.996 2.489-1.991 3.816-3.153L48.61 6.97c.498-.498.995-.166 1.493 0 .498.166.83.332 1.327.332 1.328.332 2.655.664 3.982.83 2.986.664 5.973.83 8.793.996.996 0 1.99.332 2.986.332.332 0 .498.166.332.497v19.086c0 1.825 0 3.65-.332 5.31-.331 1.66-.497 3.32-.83 4.979l-1.492 5.477c-.498 1.66-.996 3.153-1.825 4.646l-1.991 3.983-1.991 3.485c-.664.996-1.327 1.992-2.157 2.988-.995 1.327-1.99 2.655-2.986 3.817-.83.995-1.825 1.825-2.654 2.82-.83.83-1.66 1.495-2.489 2.324-.664.664-1.327.996-1.99 1.66-1.162.996-2.324 1.66-3.485 2.49l-2.489 1.493c-1.327.83-2.82 1.493-4.313 2.157-.664.332-1.493.498-2.323.83-.331.166-.83 0-1.161-.166-1.659-.83-3.484-1.493-5.143-2.49-.995-.497-1.99-.995-2.986-1.659-1.162-.664-2.157-1.66-3.318-2.323v-.166c-.166-.166-.664-.166-.664-.498 0-.332.664-.332.83-.332 1.659-.664 3.318-1.328 5.143-1.991l2.986-1.494c1.327-.664 2.488-1.328 3.65-1.992.995-.663 1.99-1.327 3.152-1.991 1.161-.83 2.323-1.66 3.318-2.655 1.161-.996 2.323-1.992 3.318-3.153.664-.83 1.493-1.494 2.157-2.324.83-1.162 1.825-2.157 2.488-3.32.498-.829.996-1.493 1.494-2.322.663-1.328 1.327-2.656 2.156-4.15.332-.497.498-1.161.664-1.659.332-.664.664-1.494.83-2.157.663-2.158 1.16-4.481 1.493-6.639.166-.83.166-1.493.331-2.323.332-2.821.498-5.643.332-8.464v-1.826c0-.497-.166-.663-.498-.663-1.327-.332-2.654-.498-3.815-.83-1.328-.332-2.489-.498-3.816-.996-.166 0-.332 0-.498-.166-1.659-.332-3.318-1.162-4.977-1.66-1.99 0-3.318-.83-4.811-1.161z" fill="#EB5757"/><path fill-rule="evenodd" clip-rule="evenodd" d="M44.794 32.86v.331c1.162-.166 2.987-.497 3.816-1.161.166.166.166.664.166.83 0 1.991-1.327 2.323-2.655 2.323-.497 0-1.16 0-1.659-.166 0 .166-.165.166-.165.332 1.16.166 2.986.498 3.815 0 0 .498-.166 1.991-1.659 1.991-.995 0-1.99-.332-2.986-.995 0 .166-.166.166-.166.332.83.663 2.157 1.327 3.318 1.327-.166.83-.498 1.328-1.825 1.328-.995 0-1.99-.996-2.82-1.826-.166 0-.166.166-.332.166.498.83 1.327 1.826 2.157 2.158-.166.332-.332.664-.996.664-1.493 0-2.156-1.328-2.654-2.49-.166 0-.166 0-.332.166.166.83.498 2.158 1.161 2.49 0 .166-.331.332-.83.332-.663 0-1.326-.498-1.326-1.992v-.166l-.498.498v-3.817h.166c.663 0 2.157 0 2.157-1.992 0-.498-.166-1.161-.166-1.66 0-.663 2.157-1.659 2.654-3.484.166.166.332.166.498.332.663-.996 2.323-3.485 2.323-4.647 1.16.332 1.493 1.66 1.493 2.821 0 1.494-1.493 2.821-2.986 3.651 0 .166 0 .332.165.498 1.162-.664 3.153-1.991 3.65-2.987.332.332.498.664.498 1.66 0 1.99-1.99 2.655-3.982 3.153zm-1.99-4.98c-.664-.165-.83.167-.664.499-.498-.166-.664-.664-.664-1.162 0-.996.664-1.494.664-1.66-.498 0-1.327-.165-1.327-.165 0 1.493-.83 1.66-1.494 1.66.498-.167.664-.665.664-.997 0-.332-.166-.663-.166-.83 0-.165.498-.83.83-.83.497 0 .995.997 1.99.997.166 0-.331 1.161-.331 1.327.166.498.166.83.497 1.162zm-4.148-.829h-1.991c-.332-.332-.664-.83-.664-1.328 0-.663.498-.995.996-.995 0 .332.332.995.663.995.166-.166.664-.663.664-.995.498 0 .995.332.995.995 0 .664-.331 1.162-.663 1.328zm-1.493-2.655c0-.498.332-.498.332-.498s.331.166.331.498c0 .498-.331.995-.331.995s-.332-.663-.332-.995zm-1.991.83h-2.82c-.498-.498-.996-1.162-.996-1.826 0-.996.664-1.494 1.493-1.494 0 .498.664 1.494.996 1.494.331-.166.995-.996.995-1.494.664 0 1.493.498 1.493 1.494-.166.664-.663 1.328-1.161 1.826zm-1.991-3.983c0-.664.664-.83.664-.83s.663.166.663.83c0 .663-.663 1.493-.663 1.493s-.664-.83-.664-1.493zm-2.323 5.808h-1.99c-.332-.332-.664-.83-.664-1.328 0-.663.497-.995.995-.995 0 .332.498.995.664.995.332 0 .663-.663.663-.995.498 0 .996.332.996.995 0 .664-.332 1.162-.664 1.328zm-1.327-2.655c0-.498.332-.498.332-.498s.332.166.332.498c0 .498-.332.995-.332.995s-.332-.663-.332-.995zm-2.82.995s-.83.166-1.328.166c0 0 .664.664.664 1.66 0 .498-.166.83-.498 1.162 0-.498 0-.83-.663-.498.166-.166.332-.664.332-.996 0-.332-.498-1.328-.332-1.328.995-.165 1.659-.995 1.99-.995.332 0 .83.663.83.83 0 .165-.166.663-.166.83 0 .331.166.83.664.995-.664-.166-1.493-.332-1.493-1.825zm.166 6.473c0 .498-.166 1.327-.166 1.66 0 1.825 1.493 1.99 2.156 1.99h.166v3.818c-.166-.166-.166-.332-.497-.498V39c0 1.494-.83 1.992-1.328 1.992-.497 0-.83-.166-.83-.332.665-.332.996-1.66 1.162-2.49-.166 0-.166 0-.332-.166-.331 1.162-1.161 2.49-2.654 2.49-.664 0-.83-.498-.995-.664.995-.498 1.659-1.328 2.156-2.158-.166 0-.166-.166-.332-.166-.663.83-1.659 1.826-2.82 1.826-1.327 0-1.659-.498-1.825-1.328 1.161 0 2.489-.664 3.318-1.327l-.166-.166c-.995.663-1.99.995-2.986.995-1.493 0-1.66-1.493-1.66-1.991.83.498 2.655.166 3.817 0 0-.166-.166-.166-.166-.332-.498.166-1.162.166-1.66.166-1.326 0-2.654-.332-2.654-2.323 0-.166 0-.664.166-.83.83.83 2.655.995 3.816 1.161v-.331c-1.99-.332-3.982-.996-3.982-3.154 0-.83.166-1.327.498-1.66.498.997 2.489 2.324 3.65 2.988 0-.166 0-.332.166-.498-1.493-.996-2.986-2.157-2.986-3.65 0-1.163.331-2.324 1.493-2.822 0 1.327 1.659 3.817 2.322 4.647.166-.166.332-.332.498-.332.498 1.825 2.655 2.655 2.655 3.319zm-6.305 9.46c0-.332-.332-.498-.497-.498v.166s-.166 0-.166-.166 0-.166.166-.332c.165 0 .165-.166.165-.166s.166 0 .166-.166v.332c.166 0 .332.166.332.331 0-.165-.166-.331 0-.497 0 0-.166 0-.166-.166h.166l.166-.166h.332v.166h-.166s-.166.332.166.663c.332-.165.332-.497.166-.83.166 0 .497 0 .663.333.332.497.166.83-.166.995-.166 0-.331.166-.331 0a.59.59 0 00.497.332c0 .166 0 .332-.166.498l.166.166 1.493 2.49c1.162 0 .664.663 1.66.663.829 0 1.327-.663 1.659-1.327-.332-.166-.498-.332-.498-.83.166.166.498 0 .498 0-.166-.166-.332-.166-.166-.498.995 0 1.659-.664 1.99-1.494v.664c0 .83.166 1.328.664 1.494-.166.166-.498.498-.498 1.161v.498c-.497 0-.83 0-.995-.166-.664.83-2.323.664-2.82 1.494 0 .332-.166.498-.332.664l.83 1.494c.165.166 0 .497-.167.497-.165.166-.497 0-.497-.166l-.664-1.161h-.166c-.498 0-.83-.332-.663-.498-.498 0-.664-.498-.498-.664-.664 0-.83-.996-.166-.996l-1.66-2.821v-.166c-.165 0-.33.166-.497 0 0 0 .166-.332 0-.664 0 .166-.166.166-.166.332-.331.166-.663.166-.995-.332-.166-.332 0-.664 0-.83.498.166.995.332 1.161.166zm9.125 4.314c.83-.332 1.327-1.161 1.327-1.493v-.166c1.493 0 2.157.498 2.655.995.497-.497 1.161-.995 2.654-.995v.166c0 .332.498 1.161 1.327 1.493l-.331.332c.663.664 2.156 1.992 3.65 2.324 0 .498-.498 1.161-1.66 1.161-1.493 0-2.654-2.157-3.152-2.987h-.332c.498 1.162 1.494 2.987 3.153 3.651-.166.498-.664.996-1.66.996-1.659 0-2.488-3.32-2.654-4.647h-.166c.166 2.323.664 3.32.664 4.315 0 .996-.83.996-1.327 1.328-.664-.332-1.328-.166-1.328-1.328 0-.996.498-1.992.664-4.315h-.166c-.332 1.328-.995 4.647-2.654 4.647-.996 0-1.494-.498-1.66-.996 1.494-.664 2.655-2.49 3.153-3.65h-.332c-.498.995-1.66 2.986-3.152 2.986-1.162 0-1.66-.663-1.66-1.161 1.494-.332 2.821-1.66 3.65-2.324-.497-.166-.497-.166-.663-.332zm8.461-3.485c0 .83-.332.996-.332.996-.166.166-.497.166-1.161.166-1.327 0-2.157.332-2.82.83-.664-.498-1.66-.83-2.82-.83-.664 0-.996 0-1.162-.166-.166 0-.332-.332-.332-.996v-8.962h8.627v8.962zm-6.968.332c.332 0 .83 0 .995-.166-.165-.166-.165-.664-.165-.664-.166 0-.498.166-.664.166a.357.357 0 01-.332-.332c0-.166.166-.332.166-.497 0-.332-.166-.664-.498-.664.166.166.166.332.166.497 0 .332-.497.332-.497.83 0 .664.331.83.83.83zm-.83-4.647c0 .498.498.498.498.996 0 .332-.166.498-.166.664.498 0 .83-.498.83-.83 0-.166-.166-.498-.166-.664 0-.166.166-.332.166-.332.166 0 .332 0 .332.166l.166-.166c-.166-.166-.332-.332-.83-.332-.498-.166-.83.166-.83.498zm.83-1.66c.332 0 .166.499.83.499.497 0 .497.331.995.331v-1.161c-.332-.166-.498-.166-.498-.498-.497 0-1.161.498-1.327.83zm5.64 2.988v-.332c0-.166-.331-.498-.497-.664h-.498c0 .166-.166.664-.166.83.498-.166.498-.332.664-.498l.498.498c-.166 0-.166.166 0 .166-.166 0-.332 0-.332.166s.332.166.332.332c.166-.166.166-.498 0-.498zm.499 1.494c0-.166-.166-.332-.498-.332.166 0 .166.166.166.332h-.332l.166.166c-.166.166-.332.166-.498.166v-.332h.166l-.166-.166h.166c0-.166-.166-.166-.332-.166s-.166 0-.166.166v.166c0 .166-.166.332-.497.497-.166-.331-.166-.83-.332-.995 0-.166 0-.332-.166-.498v-.83c0-.498.166-.498.166-1.162 0-.332-.166-.497-.166-.83 0-.165 0-.497.166-.497 0 0 .166.332.166.498v.331s.166.166.331.166c.166 0 .332-.332.332-.498 0-.165.332-.497.332-.663 0-.332-.166-.83-.83-.83-.829 0-1.492.664-1.492 1.494 0 .165-.166.165-.166 0 0-.332.166-.664.331-.996 0-.166-.166-.332-.166-.332.332-.166.498-.332.498-.664s-.332-.664-.663-.664c-.332 0-.664.332-.664.664v.332h-.166l1.493 3.983h.166c0 .166.332.664.332.664 0 .166 0 .332.166.332 0 .166.166.663.332.995h-.332l.166.332v.166l-.166-.166-2.489-6.97v-.166c0-.166-.166-.166-.166-.166l-.166-.332h-.166v.166l.166.332v1.162c0 .166.332.332.498.332 0 .166.166.498.166.664 0 .331-.166.497-.166.995-.498-.166-1.161.166-1.161.996 0 .332.166.498.166.664 0 .166.166.83-.332.83v.995s-.166.166-.166.332c0 0 .332.166.498 0 0-.166-.166-.166-.166-.331 0-.166 0-.664.166-.996.497-.166.83-.498.995-.996.166 0 .996.166 1.493.166l.664 1.826c-.498-.166-.332-.996-.83-.996h-.166c.166 0 .166 0 .166.166h-.166s.166 0 .166.166v.332c-.331-.166-.497-.166-.83-.166-.995 0-1.16.663-1.16.995 0 .664.497.996.995.996.83 0 .83-.664.83-.83 0-.498-.332-.498-.498-.498-.166.332-.332.332-.332.498 0 .166 0 .166.166.166v.166c-.166 0-.332 0-.332-.332 0-.166.166-.498.498-.498.332 0 .663.166.663.664 0 .166-.166.498-.166.664.166.166 0 .498-.331.664.166 0 1.327 0 1.493-.166 0 0 .166.166 0 .166.332-.166.663-.83.498-1.328 0 0 .165.166.165.332.166-.166.166-.332.166-.498l.166.166c.166 0 .166-.166.166-.332 0 0 .166 0 .166.166l.166-.166c.166 0 .498-.332.332-.497.332 0 .332 0 .332-.332zm-3.816-1.328h-.498c0 .166-.166.332-.166.332 0 .332-.166.332-.166.498 0 .166 0 .498.166.663h.166v-.497c-.166-.332.498-.498.498-.996zm.83-4.48c0-.167-.167-.499-.333-.499-.331 0-.497.166-.497.498 0 .166.166.166.166.166v.166h-.166c0-.166-.166-.166-.166-.332 0-.332.332-.664.663-.664.332 0 .664.332.664.664s-.166.498-.498.664c0-.166-.166-.166-.166-.166.166 0 .332-.166.332-.498zm.165 6.803v-.332c0-.166-.166-.166-.166-.166s.166-.165.166 0c0 0 0-.165-.166-.165h.166c.498 0 .332.663.664.663-.332.166-.664.166-.664 0zm-.83-8.795h-3.317c-.166-1.494-.498-1.992-1.162-1.992-.663 0-.83.332-.995.498v-.498s-.664.166-.83.166a.912.912 0 01-.83-.498c.167.166.333.166.664.166.664 0 1.328-.664 1.66-.664-.166-.166-.664-.332-.996-.332a.912.912 0 00-.83.498c-.331-.332-.497-.664-.497-1.162 0-.83.995-.83 1.327-.83-.166-.331 0-.497.498-.497h2.82c.664 0 1.161 0 1.493-.498 0 .996-.332 1.328-.995 1.494.166.166.663.166.995.166 0 .663-.498.663-.83.83 1.162.331 1.826 1.825 1.826 3.153zm-5.308-4.481l.166.498 1.16-.498H28.37zm4.81-2.656c0 1.162-.995 1.494-1.492 1.494.83-.332.663-1.494.663-1.494h.83zm2.655 1.328c-.663 0-1.493-.332-1.493-1.494h.83c0 .166 0 1.328.663 1.494zm3.484 4.315c-.166-.166-.331-.498-.995-.498-.664 0-1.161.498-1.161 1.992h-3.318c0-1.328.83-2.822 1.659-3.32-.332-.165-.83-.331-.83-.83.332.167.83.167.995-.165-.663-.166-.995-.498-.995-1.494.498.498.83.498 1.493.498h2.82c.498 0 .664.332.498.498.332 0 1.328 0 1.328.83 0 .498-.166.83-.332 1.161a.912.912 0 00-.83-.498c-.332 0-.83.166-.995.332.498 0 1.161.664 1.659.664.332 0 .498 0 .663-.166a.912.912 0 01-.83.498c-.33 0-.829-.166-.829-.166v.664zm-.497-2.49l.166-.497H37.66l1.162.498zm-.498 16.43v-.497c0-.498-.166-.996-.498-1.162.498-.332.664-.664.664-1.494v-.664c.332.83 1.161 1.494 1.99 1.494 0 .332-.165.332-.165.498.166 0 .332.166.498 0 0 .498-.166.664-.498.83.498.498.83 1.161 1.659 1.493 0-.166-.166-.498-.166-.664 0-.995.83-1.825 1.825-1.991 0-.166 0-.332.166-.664-.332 0-.498.166-.664.166-.166-.166-.166-.83 0-.83.166.166.332.166.664.166 0-.332-.166-.664-.166-.664.166-.166.83-.166.83 0-.166.166-.166.332-.166.664.331 0 .497-.166.663-.166.166.166.166.83 0 .83-.166-.166-.332-.166-.663-.166 0 .166 0 .498.166.664.995.166 1.824.996 1.824 1.991 0 .332-.166.83-.331 1.162 0 .166 0 .332-.166.498l-.332.332c-.166.166-.332.166-.498 0h-.166a.505.505 0 01-.663 0l-.166.166c-.166.166-.664.166-.83 0l-.663-.664c-.664-.664-2.489-.83-3.153-1.66-.331.332-.663.332-.995.332z" fill="#3C3E3F"/><path d="M80.796 31.698c0-6.97 3.65-10.953 10.452-10.953S101.7 24.728 101.7 31.698v22.736c0 6.97-3.65 10.953-10.452 10.953-6.803 0-10.452-3.983-10.452-10.953V31.698zm6.802 23.234c0 3.153 1.327 4.315 3.484 4.315 2.156 0 3.484-1.162 3.484-4.315V31.2c0-3.153-1.328-4.315-3.484-4.315-2.157 0-3.484 1.162-3.484 4.315v23.732zm41.476-33.689l-7.134 21.242 7.632 22.57h-7.3l-5.641-17.425-5.641 17.425h-6.47l7.797-22.57-7.299-21.242h7.134l5.143 16.097 5.309-16.097h6.47zm24.388 10.787v5.642c0 6.97-3.318 10.788-10.286 10.788h-3.318v16.43h-6.802V21.242h10.12c6.802 0 10.286 3.817 10.286 10.787zm-13.604-4.647v14.77h3.318c2.156 0 3.318-.996 3.318-4.149v-6.638c0-3.153-1.162-4.149-3.318-4.149h-3.318v.166zm38.987 37.672h-6.968l-1.161-7.966h-8.461l-1.162 7.966h-6.304l6.968-43.812h10.12l6.968 43.812zm-15.761-13.94h6.636l-3.318-22.072-3.318 22.072zm25.881 13.94h-6.968V21.243h6.968v18.753h7.798V21.243h6.968v43.812h-6.968V46.302h-7.798v18.753zm41.974 0h-6.968l-1.161-7.966h-8.461l-1.162 7.966h-6.304l6.968-43.812h10.12l6.968 43.812zm-15.595-13.94h6.636l-3.318-22.072-3.318 22.072z" fill="#333"/><path d="M236.912 13.94c-.996 0-1.659.498-1.659 1.992v2.323h-2.987v-1.991c0-3.32 1.66-5.145 4.812-5.145s4.811 1.826 4.811 5.145c0 6.472-6.47 8.962-6.47 12.28v.498h6.138v2.988h-9.456v-2.49c0-6.14 6.47-7.136 6.47-13.11 0-1.992-.664-2.49-1.659-2.49zm6.138 11.286l5.973-13.94h3.484v13.94H254v2.987h-1.493v3.817h-3.152v-3.817h-6.305v-2.988zm6.305 0v-7.8l-3.318 7.8h3.318z" fill="#2F80ED"/><path d="M86.934 77.834h-.83l-.663-1.991h-2.986l-.664 1.991h-.83l2.655-6.97h.83l2.488 6.97zm-1.825-2.655l-1.161-2.987c0-.166 0-.332-.166-.498 0 .166 0 .331-.166.498l-1.161 2.987h2.654zm7.466-3.651h-2.82v6.306h-.83v-6.97h3.65v.664zm5.641 6.306h-3.65v-6.97h3.484v.664h-2.655v2.323h2.489v.83h-2.489v2.323h2.82v.83zm7.465 0h-.829v-3.153h-3.65v3.153h-.83v-6.97h.83v2.987h3.65v-2.987h.829v6.97zm6.802-6.306h-1.991v6.306h-.829v-6.306h-1.991v-.664h4.811v.664zm6.802 5.974c-.497.332-1.161.332-1.99.332-.996 0-1.825-.332-2.323-.996-.664-.663-.83-1.493-.83-2.49 0-1.16.332-1.99.996-2.654.663-.664 1.493-.996 2.488-.996.664 0 1.162.166 1.659.332v.83a2.8 2.8 0 00-1.659-.498c-.829 0-1.493.332-1.99.83-.498.497-.83 1.327-.83 2.157 0 .83.166 1.494.664 1.991.497.498.995.83 1.825.83.663 0 1.327-.166 1.825-.498v.83h.165zm6.471-5.974h-2.157v6.306h-.83v-6.306h-1.99v-.664h4.977v.664zm1.991 6.306v-6.97h1.99c.664 0 1.162.166 1.494.498.331.332.497.663.497 1.161 0 .332-.166.664-.332.996-.165.332-.497.498-.829.664.498 0 .829.166 1.161.498.332.332.498.664.498 1.162 0 .663-.166.995-.664 1.493a2.8 2.8 0 01-1.659.498h-2.156zm.663-6.306v2.323h.83c.497 0 .829-.166.995-.332.332-.166.332-.498.332-.996 0-.663-.498-.995-1.327-.995h-.83zm0 2.987v2.49h1.162c.497 0 .829-.167 1.161-.333.332-.166.332-.498.332-.995 0-.83-.498-1.162-1.659-1.162h-.996zM137.037 78c-.995 0-1.825-.332-2.322-.996-.664-.664-.83-1.493-.83-2.49 0-1.16.332-1.99.83-2.654.663-.664 1.493-.996 2.488-.996.996 0 1.659.332 2.323.996.663.663.829 1.493.829 2.489 0 1.162-.331 1.991-.829 2.655-.498.664-1.493.996-2.489.996zm.166-6.472c-.663 0-1.327.332-1.825.83-.498.497-.663 1.161-.663 2.157s.165 1.493.663 2.157c.498.498.996.83 1.825.83.83 0 1.327-.332 1.825-.83.498-.498.664-1.161.664-2.157s-.166-1.66-.664-2.158c-.498-.663-1.161-.83-1.825-.83zm9.125 6.306v-6.97h3.65v.664h-2.987v2.157h1.328c.663 0 1.161.166 1.659.498.332.332.663.83.663 1.494 0 .663-.165 1.161-.663 1.493-.332.332-.996.498-1.659.498h-1.991v.166zm.829-3.32v2.49h1.162c.497 0 .829-.166 1.161-.332.332-.166.332-.498.332-.995 0-.83-.498-1.328-1.493-1.328h-1.162v.166zm9.457 3.32h-3.816v-6.97h3.65v.664h-2.82v2.323h2.654v.83h-2.654v2.323h2.986v.83zm1.659-.332v-.83c.498.332 1.161.664 1.825.664.498 0 .829-.166 1.161-.332.332-.166.498-.498.498-.996 0-.83-.664-1.327-1.825-1.327h-.664v-.664h.664c.498 0 .995-.166 1.161-.332.332-.166.498-.498.498-.996 0-.331-.166-.663-.332-.83-.166-.165-.497-.331-.995-.331-.664 0-1.161.166-1.659.497v-.83c.498-.331 1.161-.497 1.825-.497.663 0 1.161.166 1.493.498.332.332.498.664.498 1.162 0 .83-.498 1.493-1.328 1.659.498 0 .83.166 1.162.498.332.332.497.664.497 1.162 0 .663-.165 1.161-.663 1.493a2.749 2.749 0 01-1.991.83c-.83 0-1.327-.166-1.825-.498zm9.622.498c-.995 0-1.825-.332-2.322-.996-.664-.664-.83-1.493-.83-2.49 0-1.16.332-1.99.83-2.654.663-.664 1.493-.996 2.488-.996.996 0 1.659.332 2.323.996.664.663.83 1.493.83 2.489 0 1.162-.332 1.991-.83 2.655-.498.664-1.493.996-2.489.996zm0-6.472c-.663 0-1.327.332-1.825.83-.497.497-.663 1.161-.663 2.157s.166 1.493.663 2.157c.498.498.996.83 1.825.83.83 0 1.328-.332 1.825-.83.498-.498.664-1.161.664-2.157s-.166-1.66-.664-2.158c-.497-.663-.995-.83-1.825-.83zm10.95 6.306h-.829v-6.306h-3.65v6.306h-.83v-6.97h5.309v6.97zm7.964 0h-.83l-.664-1.991h-2.986l-.663 1.991h-.83l2.655-6.97h.829l2.489 6.97zm-1.825-2.655l-1.162-2.987c0-.166 0-.332-.166-.498 0 .166 0 .331-.165.498l-1.162 2.987h2.655zm8.627 2.323c-.498.332-1.162.332-1.991.332-.996 0-1.825-.332-2.323-.996-.663-.663-.829-1.493-.829-2.49 0-1.16.331-1.99.995-2.654.664-.664 1.493-.996 2.489-.996.663 0 1.161.166 1.659.332v.83a2.804 2.804 0 00-1.659-.498c-.83 0-1.493.332-1.991.83-.498.497-.83 1.327-.83 2.157 0 .83.166 1.494.664 1.991.498.498.995.83 1.825.83.663 0 1.327-.166 1.825-.498v.83h.166zm7.465.332h-.829v-3.153h-3.65v3.153h-.83v-6.97h.83v2.987h3.65v-2.987h.829v6.97zm5.475.166c-.995 0-1.825-.332-2.322-.996-.664-.664-.83-1.493-.83-2.49 0-1.16.332-1.99.83-2.654.663-.664 1.493-.996 2.488-.996.996 0 1.659.332 2.323.996.663.663.829 1.493.829 2.489 0 1.162-.331 1.991-.829 2.655-.498.664-1.327.996-2.489.996zm.166-6.472c-.663 0-1.327.332-1.825.83-.497.497-.663 1.161-.663 2.157s.166 1.493.663 2.157c.498.498.996.83 1.825.83.83 0 1.327-.332 1.825-.83.498-.498.664-1.161.664-2.157s-.166-1.66-.664-2.158c-.498-.663-1.161-.83-1.825-.83zm10.286 5.974c-.497.332-1.161.332-1.991.332-.995 0-1.825-.332-2.322-.996-.664-.663-.83-1.493-.83-2.49 0-1.16.332-1.99.996-2.654.663-.664 1.493-.996 2.488-.996.664 0 1.162.166 1.659.332v.83a2.8 2.8 0 00-1.659-.498c-.829 0-1.493.332-1.991.83-.497.497-.663 1.327-.663 2.157 0 .83.166 1.494.663 1.991.498.498.996.83 1.825.83.664 0 1.328-.166 1.825-.498v.83zm6.305-5.974h-1.991v6.306h-.83v-6.306h-1.991v-.664h4.812v.664zm7.631 6.306h-.829V71.86c0 .165-.166.332-.166.497L226.294 78h-.996v-6.97h.83v5.974c0-.166.166-.332.332-.498l3.484-5.476h.995v6.804z" fill="#333"/></g><defs><clipPath id="clip0"><path fill="#fff" d="M0 0h254v78H0z"/></clipPath></defs></svg>