<svg width="83" height="255" fill="none" xmlns="http://www.w3.org/2000/svg"><path d="M41.146 195.854a.5.5 0 00.708 0l3.181-3.182a.501.501 0 00-.707-.708l-2.828 2.829-2.828-2.829a.5.5 0 00-.707.708l3.181 3.182zm.708-130.708a.5.5 0 00-.707 0l-3.182 3.182a.5.5 0 10.707.707l2.828-2.828 2.828 2.829a.5.5 0 10.707-.708l-3.181-3.181zM42 195.5v-130h-1v130h1z" fill="#fff" mask="url(#)"/><path d="M32.24 45.98c0 .94.14 1.86 1.04 2.58.44.36 1.1.64 2.04.64.78 0 1.5-.2 2.1-.7.92-.78.98-1.72.98-2.52v-7.96c0-.76-.04-1.54-.76-2.3-.66-.68-1.46-.92-2.32-.92-.78 0-1.58.22-2.12.68-.9.76-.96 1.84-.96 2.54v7.96zm4.16-.28c0 .36-.02.78-.24 1.12-.2.3-.46.42-.84.42-.24 0-.58-.04-.84-.42-.22-.32-.24-.74-.24-1.12v-7.4c0-.38.02-.82.24-1.12.18-.26.48-.42.84-.42.38 0 .68.18.84.42.22.3.24.76.24 1.12v7.4zm6.2-6.76h2v-.8c0-.32.04-.7.3-1.02a.92.92 0 01.74-.36c.38 0 .66.14.8.3.18.18.32.48.32.84v1.78c0 .2-.02.62-.32.92-.26.26-.56.3-.86.3h-.46v1.78h.48c.34 0 .62-.02.88.28.26.3.28.68.28 1v2.08c0 .96-.56 1.2-1.06 1.2-.42 0-.7-.18-.84-.36-.18-.24-.26-.66-.26-.96V45h-2v1.42c0 .96.38 1.62.8 2.02.68.66 1.46.76 2.18.76.84 0 1.68-.14 2.36-.82.78-.78.82-1.6.82-2.72v-1.34c0-.86-.06-2.04-1.22-2.52 1.08-.44 1.22-1.42 1.22-2.06v-2.02c0-1.12-.52-1.88-1.02-2.28-.56-.46-1.4-.64-2.12-.64-.84 0-1.52.24-2.04.68-.88.74-.98 1.66-.98 2.24v1.22zM32.24 218.98c0 .94.14 1.86 1.04 2.58.44.36 1.1.64 2.04.64.78 0 1.5-.2 2.1-.7.92-.78.98-1.72.98-2.52v-7.96c0-.76-.04-1.54-.76-2.3-.66-.68-1.46-.92-2.32-.92-.78 0-1.58.22-2.12.68-.9.76-.96 1.84-.96 2.54v7.96zm4.16-.28c0 .36-.02.78-.24 1.12-.2.3-.46.42-.84.42-.24 0-.58-.04-.84-.42-.22-.32-.24-.74-.24-1.12v-7.4c0-.38.02-.82.24-1.12.18-.26.48-.42.84-.42.38 0 .68.18.84.42.22.3.24.76.24 1.12v7.4zm8.8-10.7l-2.98 10.16v1.68h3.96V222h2v-2.16h.96v-1.8h-.96v-3.98h-2v3.96h-1.94L47.16 208H45.2z" fill="#fff"/><circle cx="41.5" cy="41.5" r="41" stroke="#fff" stroke-opacity=".5"/><circle cx="41.5" cy="213.5" r="41" stroke="#fff" stroke-opacity=".5"/></svg>