<svg width="115" height="38" fill="none" xmlns="http://www.w3.org/2000/svg"><g clip-path="url(#clip0)"><path d="M114.929 9.05c1.566 8.935-22.874 20.635-54.595 26.133C28.617 40.681 1.636 37.892.072 28.952c-1.564-8.935 22.883-20.634 54.6-26.13C86.39-2.68 113.367.113 114.929 9.05z" fill="#034EA2"/><path d="M85.076 22.311l-.162-9.29h2.943v11.71h-4.231l-2.938-9.61h-.064l.164 9.61h-2.926v-11.71h4.416l2.733 9.29h.065zM31.57 14.119l-1.63 10.735h-3.21l2.203-11.833h5.289l2.196 11.833h-3.2L31.637 14.12h-.067zm13.864 7.948l1.47-9.046h4.848l.257 11.833h-2.971l-.079-10.638h-.061L46.91 24.854h-3.016l-1.99-10.638h-.064l-.074 10.638h-2.978l.264-11.833h4.852l1.466 9.046h.064zm-23.71-.551c.116.286.08.655.026.878-.1.392-.369.795-1.158.795-.746 0-1.198-.426-1.198-1.075V20.97h-3.19l-.002.916c0 2.638 2.087 3.435 4.323 3.435 2.152 0 3.923-.731 4.203-2.704.145-1.022.036-1.692-.012-1.945-.501-2.476-5.015-3.217-5.35-4.6a1.549 1.549 0 01-.012-.625c.083-.377.342-.793 1.086-.793.694 0 1.105.428 1.105 1.074v.731h2.964v-.83c0-2.579-2.324-2.981-4.007-2.981-2.116 0-3.844.695-4.16 2.621a4.132 4.132 0 00.026 1.6c.52 2.415 4.742 3.115 5.356 4.648zm38.662-.021c.116.284.078.643.026.866-.098.392-.364.787-1.148.787-.735 0-1.184-.425-1.184-1.06l-.002-1.135H54.92l-.005.904c0 2.611 2.068 3.4 4.281 3.4 2.128 0 3.882-.722 4.16-2.676.145-1.015.043-1.675-.01-1.924-.499-2.453-4.965-3.186-5.298-4.558a1.489 1.489 0 01-.012-.613c.086-.381.34-.786 1.077-.786.69 0 1.091.417 1.091 1.06v.724h2.943v-.823c0-2.55-2.306-2.95-3.975-2.95-2.091 0-3.805.686-4.114 2.6a4.04 4.04 0 00.028 1.58c.511 2.392 4.692 3.087 5.299 4.604zm9.985 1.589c.825 0 1.082-.567 1.14-.858a2.46 2.46 0 00.028-.452v-8.758h3.007v8.488a8.76 8.76 0 01-.027.776c-.211 2.21-1.965 2.926-4.15 2.926-2.187 0-3.943-.716-4.153-2.926-.009-.111-.03-.56-.026-.776v-8.488h3.005v8.755c0 .154.005.327.028.452.067.291.317.861 1.148.861zm24.805-.124c.86 0 1.162-.543 1.217-.857.021-.135.028-.3.026-.45v-1.717h-1.22v-1.727h4.217v3.177a8.329 8.329 0 01-.042.78c-.198 2.154-2.076 2.922-4.182 2.922-2.11 0-3.983-.768-4.186-2.921a10.428 10.428 0 01-.042-.781l.002-4.982c0-.21.026-.582.05-.78.264-2.213 2.066-2.925 4.176-2.925 2.109 0 3.956.708 4.174 2.924.038.376.026.78.026.78v.396h-2.997v-.662a2.95 2.95 0 00-.038-.45c-.05-.262-.278-.863-1.186-.863-.868 0-1.12.567-1.184.863-.035.156-.05.367-.05.558v5.413a2.5 2.5 0 00.031.45c.048.31.347.851 1.208.851z" fill="#fff"/></g><defs><clipPath id="clip0"><path fill="#fff" d="M0 0h115v38H0z"/></clipPath></defs></svg>